<?xml version="1.0" encoding="UTF-8" standalone="no"?>
<svg xmlns="http://www.w3.org/2000/svg" viewBox="0 0 16 16" width="16" height="16">
  <linearGradient id="_lgradient_4" x1="1" y1="1" x2="0" y2="0" gradientTransform="matrix(7,0,0,12,9,4)" gradientUnits="userSpaceOnUse">
    <stop offset="0%" stop-opacity="1" style="stop-color:rgb(255,0,93)" />
    <stop offset="100%" stop-opacity="1" style="stop-color:rgb(255,89,0)" />
  </linearGradient>
  <path d=" M 9 4 L 13.194 4 C 14.743 4 16 5.257 16 6.806 L 16 13.194 C 16 14.743 14.743 16 13.194 16 L 11.806 16 C 10.257 16 9 14.743 9 13.194 L 9 4 Z " fill="url(#_lgradient_4)" />
  <linearGradient id="_lgradient_5" x1="0" y1="0" x2="1" y2="1" gradientTransform="matrix(8,0,0,12,0,0)" gradientUnits="userSpaceOnUse">
    <stop offset="0%" stop-opacity="1" style="stop-color:rgb(0,200,255)" />
    <stop offset="100%" stop-opacity="1" style="stop-color:rgb(85,0,255)" />
  </linearGradient>
  <path d=" M 3 0 L 5 0 C 6.656 0 8 1.344 8 3 L 8 12 L 3 12 C 1.344 12 0 10.656 0 9 L 0 3 C 0 1.344 1.344 0 3 0 Z  M 3 2 L 5 2 C 5.552 2 6 2.448 6 3 L 6 9 C 6 9.552 5.552 10 5 10 L 3 10 C 2.448 10 2 9.552 2 9 L 2 3 C 2 2.448 2.448 2 3 2 Z " fill-rule="evenodd" fill="url(#_lgradient_5)" />
</svg>
