<?xml version="1.0" encoding="UTF-8" standalone="no"?>
<svg xmlns="http://www.w3.org/2000/svg" viewBox="0 0 100 16" width="100" height="16">
  <linearGradient id="_lgradient_8" x1="1" y1="1" x2="0" y2="0" gradientTransform="matrix(7,0,0,12,9,4)" gradientUnits="userSpaceOnUse">
    <stop offset="0%" stop-opacity="1" style="stop-color:rgb(255,0,93)" />
    <stop offset="100%" stop-opacity="1" style="stop-color:rgb(255,89,0)" />
  </linearGradient>
  <path d=" M 9 4 L 13.194 4 C 14.743 4 16 5.257 16 6.806 L 16 13.194 C 16 14.743 14.743 16 13.194 16 L 11.806 16 C 10.257 16 9 14.743 9 13.194 L 9 4 Z " fill="url(#_lgradient_8)" />
  <linearGradient id="_lgradient_9" x1="0" y1="0" x2="1" y2="1" gradientTransform="matrix(8,0,0,12,0,0)" gradientUnits="userSpaceOnUse">
    <stop offset="0%" stop-opacity="1" style="stop-color:rgb(0,200,255)" />
    <stop offset="100%" stop-opacity="1" style="stop-color:rgb(85,0,255)" />
  </linearGradient>
  <path d=" M 3 0 L 5 0 C 6.656 0 8 1.344 8 3 L 8 12 L 3 12 C 1.344 12 0 10.656 0 9 L 0 3 C 0 1.344 1.344 0 3 0 Z  M 3 2 L 5 2 C 5.552 2 6 2.448 6 3 L 6 9 C 6 9.552 5.552 10 5 10 L 3 10 C 2.448 10 2 9.552 2 9 L 2 3 C 2 2.448 2.448 2 3 2 Z " fill-rule="evenodd" fill="url(#_lgradient_9)" />
  <path d=" M 23.9 13.4 L 23.9 5.08 L 20.876 5.08 L 20.876 3.096 L 29.5 3.096 L 29.5 5.08 L 26.476 5.08 L 26.476 13.4 L 23.9 13.4 Z  M 30.684 4.616 L 30.684 2.68 L 33.484 2.68 L 33.484 4.616 L 30.684 4.616 Z  M 30.892 13.4 L 30.892 7.72 L 29.772 7.72 L 29.996 5.816 L 33.468 5.816 L 33.468 13.4 L 30.892 13.4 Z  M 35.116 13.4 L 35.116 5.816 L 37.5 5.816 L 37.58 6.488 L 37.58 6.488 Q 38.732 5.656 40.108 5.656 L 40.108 5.656 L 40.108 5.656 Q 40.844 5.656 41.284 5.88 L 41.284 5.88 L 41.284 5.88 Q 41.724 6.104 41.98 6.536 L 41.98 6.536 L 41.98 6.536 Q 42.556 6.12 43.22 5.888 L 43.22 5.888 L 43.22 5.888 Q 43.884 5.656 44.732 5.656 L 44.732 5.656 L 44.732 5.656 Q 46.044 5.656 46.676 6.344 L 46.676 6.344 L 46.676 6.344 Q 47.308 7.032 47.308 8.44 L 47.308 8.44 L 47.308 13.4 L 44.764 13.4 L 44.764 8.744 L 44.764 8.744 Q 44.764 8.12 44.5 7.84 L 44.5 7.84 L 44.5 7.84 Q 44.236 7.56 43.644 7.56 L 43.644 7.56 L 43.644 7.56 Q 43.26 7.56 42.916 7.712 L 42.916 7.712 L 42.916 7.712 Q 42.572 7.864 42.332 8.136 L 42.332 8.136 L 42.332 8.136 Q 42.38 8.376 42.38 8.856 L 42.38 8.856 L 42.38 13.4 L 39.98 13.4 L 39.98 8.712 L 39.98 8.712 Q 39.98 8.104 39.772 7.832 L 39.772 7.832 L 39.772 7.832 Q 39.564 7.56 39.02 7.56 L 39.02 7.56 L 39.02 7.56 Q 38.348 7.56 37.628 8.248 L 37.628 8.248 L 37.628 13.4 L 35.116 13.4 Z  M 52.924 13.56 L 52.924 13.56 Q 50.892 13.56 49.716 12.552 L 49.716 12.552 L 49.716 12.552 Q 48.54 11.544 48.54 9.608 L 48.54 9.608 L 48.54 9.608 Q 48.54 7.752 49.556 6.704 L 49.556 6.704 L 49.556 6.704 Q 50.572 5.656 52.508 5.656 L 52.508 5.656 L 52.508 5.656 Q 54.284 5.656 55.292 6.584 L 55.292 6.584 L 55.292 6.584 Q 56.3 7.512 56.3 9.08 L 56.3 9.08 L 56.3 10.44 L 50.924 10.44 L 50.924 10.44 Q 51.1 11.176 51.724 11.48 L 51.724 11.48 L 51.724 11.48 Q 52.348 11.784 53.516 11.784 L 53.516 11.784 L 53.516 11.784 Q 54.14 11.784 54.788 11.672 L 54.788 11.672 L 54.788 11.672 Q 55.436 11.56 55.868 11.384 L 55.868 11.384 L 55.868 13.064 L 55.868 13.064 Q 54.78 13.56 52.924 13.56 L 52.924 13.56 Z  M 50.924 8.952 L 54.06 8.952 L 54.06 8.616 L 54.06 8.616 Q 54.06 7.4 52.588 7.4 L 52.588 7.4 L 52.588 7.4 Q 51.676 7.4 51.3 7.768 L 51.3 7.768 L 51.3 7.768 Q 50.924 8.136 50.924 8.952 L 50.924 8.952 Z  M 60.732 13.56 L 60.732 13.56 Q 59.356 13.56 58.676 12.856 L 58.676 12.856 L 58.676 12.856 Q 57.996 12.152 57.996 10.856 L 57.996 10.856 L 57.996 7.768 L 56.972 7.768 L 56.972 5.816 L 57.996 5.816 L 57.996 4.232 L 60.572 3.544 L 60.572 5.816 L 62.412 5.816 L 62.3 7.768 L 60.572 7.768 L 60.572 10.68 L 60.572 10.68 Q 60.572 11.224 60.828 11.44 L 60.828 11.44 L 60.828 11.44 Q 61.084 11.656 61.66 11.656 L 61.66 11.656 L 61.66 11.656 Q 62.124 11.656 62.604 11.496 L 62.604 11.496 L 62.604 13.24 L 62.604 13.24 Q 61.852 13.56 60.732 13.56 L 60.732 13.56 Z  M 65.404 13.56 L 65.404 13.56 Q 64.236 13.56 63.476 12.944 L 63.476 12.944 L 63.476 12.944 Q 62.716 12.328 62.716 11.176 L 62.716 11.176 L 62.716 11.176 Q 62.716 9.992 63.524 9.336 L 63.524 9.336 L 63.524 9.336 Q 64.332 8.68 65.884 8.68 L 65.884 8.68 L 67.996 8.68 L 67.996 8.504 L 67.996 8.504 Q 67.996 7.912 67.604 7.672 L 67.604 7.672 L 67.604 7.672 Q 67.212 7.432 66.172 7.432 L 66.172 7.432 L 66.172 7.432 Q 64.876 7.432 63.628 7.832 L 63.628 7.832 L 63.628 6.168 L 63.628 6.168 Q 64.204 5.944 65.02 5.8 L 65.02 5.8 L 65.02 5.8 Q 65.836 5.656 66.7 5.656 L 66.7 5.656 L 66.7 5.656 Q 68.508 5.656 69.484 6.392 L 69.484 6.392 L 69.484 6.392 Q 70.46 7.128 70.46 8.664 L 70.46 8.664 L 70.46 13.4 L 68.204 13.4 L 68.076 12.76 L 68.076 12.76 Q 67.196 13.56 65.404 13.56 L 65.404 13.56 Z  M 66.22 11.976 L 66.22 11.976 Q 67.372 11.976 67.996 11.24 L 67.996 11.24 L 67.996 10.168 L 66.172 10.168 L 66.172 10.168 Q 65.596 10.168 65.316 10.392 L 65.316 10.392 L 65.316 10.392 Q 65.036 10.616 65.036 11.08 L 65.036 11.08 L 65.036 11.08 Q 65.036 11.976 66.22 11.976 L 66.22 11.976 Z  M 76.764 13.56 L 76.764 13.56 Q 76.012 13.56 75.436 13.36 L 75.436 13.36 L 75.436 13.36 Q 74.86 13.16 74.38 12.76 L 74.38 12.76 L 74.252 13.4 L 72.012 13.4 L 72.012 2.616 L 74.588 2.616 L 74.588 6.168 L 74.588 6.168 Q 75.468 5.656 76.684 5.656 L 76.684 5.656 L 76.684 5.656 Q 78.412 5.656 79.34 6.6 L 79.34 6.6 L 79.34 6.6 Q 80.268 7.544 80.268 9.544 L 80.268 9.544 L 80.268 9.544 Q 80.268 11.544 79.34 12.552 L 79.34 12.552 L 79.34 12.552 Q 78.412 13.56 76.764 13.56 L 76.764 13.56 Z  M 76.028 11.688 L 76.028 11.688 Q 76.876 11.688 77.26 11.176 L 77.26 11.176 L 77.26 11.176 Q 77.644 10.664 77.644 9.56 L 77.644 9.56 L 77.644 9.56 Q 77.644 8.472 77.26 8.008 L 77.26 8.008 L 77.26 8.008 Q 76.876 7.544 76.028 7.544 L 76.028 7.544 L 76.028 7.544 Q 75.116 7.544 74.588 8.024 L 74.588 8.024 L 74.588 11.112 L 74.588 11.112 Q 75.164 11.688 76.028 11.688 L 76.028 11.688 Z  M 83.916 13.56 L 83.916 13.56 Q 82.668 13.56 82.124 13.016 L 82.124 13.016 L 82.124 13.016 Q 81.58 12.472 81.58 11.272 L 81.58 11.272 L 81.58 2.616 L 84.156 2.616 L 84.156 11.016 L 84.156 11.016 Q 84.156 11.384 84.3 11.52 L 84.3 11.52 L 84.3 11.52 Q 84.444 11.656 84.764 11.656 L 84.764 11.656 L 84.764 11.656 Q 85.196 11.656 85.532 11.544 L 85.532 11.544 L 85.532 13.288 L 85.532 13.288 Q 85.148 13.432 84.788 13.496 L 84.788 13.496 L 84.788 13.496 Q 84.428 13.56 83.916 13.56 L 83.916 13.56 Z  M 89.852 13.56 L 89.852 13.56 Q 87.82 13.56 86.644 12.552 L 86.644 12.552 L 86.644 12.552 Q 85.468 11.544 85.468 9.608 L 85.468 9.608 L 85.468 9.608 Q 85.468 7.752 86.484 6.704 L 86.484 6.704 L 86.484 6.704 Q 87.5 5.656 89.436 5.656 L 89.436 5.656 L 89.436 5.656 Q 91.212 5.656 92.22 6.584 L 92.22 6.584 L 92.22 6.584 Q 93.228 7.512 93.228 9.08 L 93.228 9.08 L 93.228 10.44 L 87.852 10.44 L 87.852 10.44 Q 88.028 11.176 88.652 11.48 L 88.652 11.48 L 88.652 11.48 Q 89.276 11.784 90.444 11.784 L 90.444 11.784 L 90.444 11.784 Q 91.068 11.784 91.716 11.672 L 91.716 11.672 L 91.716 11.672 Q 92.364 11.56 92.796 11.384 L 92.796 11.384 L 92.796 13.064 L 92.796 13.064 Q 91.708 13.56 89.852 13.56 L 89.852 13.56 Z  M 87.852 8.952 L 90.988 8.952 L 90.988 8.616 L 90.988 8.616 Q 90.988 7.4 89.516 7.4 L 89.516 7.4 L 89.516 7.4 Q 88.604 7.4 88.228 7.768 L 88.228 7.768 L 88.228 7.768 Q 87.852 8.136 87.852 8.952 L 87.852 8.952 Z  M 94.54 13.4 L 94.54 5.816 L 96.988 5.816 L 97.068 6.52 L 97.068 6.52 Q 97.58 6.216 98.316 5.968 L 98.316 5.968 L 98.316 5.968 Q 99.052 5.72 99.772 5.656 L 99.772 5.656 L 99.772 7.592 L 99.772 7.592 Q 99.1 7.672 98.332 7.872 L 98.332 7.872 L 98.332 7.872 Q 97.564 8.072 97.116 8.296 L 97.116 8.296 L 97.116 13.4 L 94.54 13.4 Z " fill="rgb(0,0,0)" />
</svg>
